<svg version="1.1" viewBox="0 0 96 96" xmlns="http://www.w3.org/2000/svg" xmlns:xlink="http://www.w3.org/1999/xlink" id="Icons_Clipboard" overflow="hidden"><path d=" M 73 82 L 23 82 L 23 20 L 34 20 L 34 26 L 62 26 L 62 20 L 73 20 L 73 82 Z M 48 12 C 49.7 12 51 13.3 51 15 C 51 16.7 49.7 18 48 18 C 46.3 18 45 16.7 45 15 C 45 14.2 45.3 13.4 45.9 12.9 C 46.4 12.3 47.2 12 48 12 Z M 75 14 L 58 14 L 58 12 C 58 9.8 56.2 8 54 8 L 42 8 C 39.8 8 38 9.8 38 12 L 38 14 L 21 14 C 18.8 14 17 15.8 17 18 L 17 84 C 17 86.2 18.8 88 21 88 L 75 88 C 77.2 88 79 86.2 79 84 L 79 18 C 79 15.8 77.2 14 75 14 Z" stroke="none" stroke-width="1" stroke-linecap="butt" stroke-dasharray="" stroke-dashoffset="1" fill="#FFD347" fill-opacity="1"/></svg>