<svg viewBox="0 0 96 96" xmlns="http://www.w3.org/2000/svg" xmlns:xlink="http://www.w3.org/1999/xlink" id="Icons_FireHydrant" overflow="hidden"><rect x="29" y="84" width="38" height="6" fill="#C00000"/><path d="M66 25 63 25C63.0015 17.871 57.985 11.7258 51 10.3L51 6 45 6 45 10.3C38.015 11.7258 32.9985 17.871 33 25L30 25 30 29 66 29Z" fill="#C00000"/><path d="M29 57 29 42 22 43 22 47 18 47 18 52 22 52 22 56 29 57Z" fill="#C00000"/><path d="M78 47 74 47 74 43 67 42 67 57 74 56 74 52 78 52 78 47Z" fill="#C00000"/><path d="M33 33 33 80 63 80 63 33ZM48 58C43.0294 58 39 53.9706 39 49 39 44.0294 43.0294 40 48 40 52.9706 40 57 44.0294 57 49 57 53.9706 52.9706 58 48 58Z" fill="#C00000"/><path d="M49.692 52.706 51.801 50.061 51.048 46.762 48 45.294 44.952 46.762 44.199 50.061 46.308 52.706 49.692 52.706Z" fill="#C00000"/></svg>