<svg viewBox="0 0 96 96" xmlns="http://www.w3.org/2000/svg" xmlns:xlink="http://www.w3.org/1999/xlink" id="Icons_FirefighterMale_M" overflow="hidden"><style>
.MsftOfcThm_Accent6_lumMod_75_Fill_v2 {
 fill:#548235; 
}
</style>
<g id="Icons"><path d="M68.687 63.757C68.6981 63.2269 68.6255 62.6985 68.472 62.191 68.4024 61.9794 68.3686 61.7577 68.372 61.535 68.4182 61.3087 68.518 61.0968 68.663 60.917L69.233 60.217 66.6 57.623 65.9 58.26C65.5434 58.5716 65.0121 58.5737 64.653 58.265L63.986 57.665 63.319 58.265C62.9631 58.5852 62.4229 58.5852 62.067 58.265L61.36 57.631 58.8 60.209 59.341 60.903C59.4798 61.0813 59.5731 61.2906 59.613 61.513 59.6095 61.7255 59.5675 61.9355 59.489 62.133 59.3011 62.6533 59.2119 63.204 59.226 63.757 59.226 67.678 63.506 68.913 63.689 68.963L63.956 69.038 64.224 68.963C64.408 68.913 68.687 67.678 68.687 63.757ZM61.227 63.757C61.2143 63.4211 61.268 63.0861 61.385 62.771 61.5426 62.3455 61.6205 61.8947 61.615 61.441L61.606 61.308C61.5661 61.0149 61.4885 60.7282 61.375 60.455L61.553 60.275C62.3364 60.6062 63.225 60.5806 63.988 60.205 64.7547 60.5815 65.6478 60.6034 66.432 60.265L66.622 60.453C66.5064 60.719 66.4251 60.9985 66.38 61.285L66.368 61.422C66.3537 61.8683 66.4145 62.3139 66.548 62.74 66.6504 63.0689 66.6974 63.4126 66.687 63.757 66.687 65.748 64.698 66.671 63.958 66.946 63.224 66.671 61.227 65.741 61.227 63.757Z" class="MsftOfcThm_Accent6_lumMod_75_Fill_v2" fill="#548235"/><rect x="21.999" y="72" width="10" height="2" class="MsftOfcThm_Accent6_lumMod_75_Fill_v2" fill="#548235"/><rect x="63.999" y="72" width="10" height="2" class="MsftOfcThm_Accent6_lumMod_75_Fill_v2" fill="#548235"/><path d="M66.662 37.009C71.481 34.909 72.493 31.919 72.493 29.778 72.493 28.078 71.655 25.597 67.671 23.372 66.7682 22.8209 65.8291 22.3318 64.86 21.908 64.2009 16.4435 60.9451 11.6329 56.117 8.99L55.463 8.635C54.9305 6.50671 53.0229 5.01028 50.829 5L45.194 5C42.9852 4.99369 41.0587 6.49917 40.531 8.644L39.893 8.99C35.0574 11.6298 31.7916 16.4396 31.122 21.908 30.1474 22.32 29.2073 22.8096 28.311 23.372 24.327 25.597 23.489 28.082 23.489 29.778 23.489 31.919 24.5 34.911 29.319 37.009L32.6 38.315 34.253 38.973C34.7141 40.0473 35.3005 41.0633 36 42L36 50.493 32.8 51.807C28.283 53.422 23.992 55.267 20.388 58.215 18.2921 59.849 17.0468 62.3428 17 65L17 82.035 17.445 82.335C22.121 85.453 35.273 87.009 48.318 87.009 61.418 87.009 74.411 85.439 78.591 82.303L79 82 79 64.981C78.9508 62.3384 77.7141 59.8584 75.633 58.229 72 55.26 67.693 53.412 63.163 51.793L60 50.494 60 42C60.7047 41.0603 61.2959 40.0406 61.761 38.962L63.387 38.315ZM49 53.9 49 49.96 50.983 47.7C53.5965 47.1652 56.0192 45.9408 58 44.154L58 50.583C58 51.866 54.524 53.7 49 53.9ZM38 50.583 38 44.148C39.979 45.9369 42.4008 47.1634 45.014 47.7L47 49.96 47 53.9C41.474 53.7 38 51.866 38 50.583ZM35.066 29.066C38.628 27.308 41.961 26.366 47.949 26.366 53.96 26.366 57.413 27.349 60.916 29.066 60.948 29.553 60.969 30.082 60.977 30.435 61.006 31.629 60.989 33.335 60.896 34.579 60.0331 41.6994 53.5613 46.7721 46.4408 45.9092 40.0651 45.1365 35.2116 39.8196 35.022 33.4ZM55.166 10.748C59.022 12.8439 61.7606 16.5301 62.654 20.827 59.831 19.5307 56.8215 18.687 53.736 18.327ZM45.194 7 50.816 7C52.1123 7.00855 53.2347 7.90247 53.533 9.164L51.833 18.14C50.633 18.049 49.347 18 47.949 18 46.584 18 45.332 18.046 44.163 18.131L42.463 9.183C42.755 7.90886 43.8868 7.00416 45.194 7ZM40.846 10.748 42.274 18.312C39.1783 18.6613 36.1594 19.5085 33.334 20.821 34.2416 16.525 36.9873 12.8432 40.846 10.748ZM62.959 23.185C64.529 23.933 65.421 24.376 66.651 25.093 69.068 26.433 70.493 28.026 70.493 29.778 70.493 31.84 69.2 33.723 65.864 35.178L62.646 36.46C62.776 35.9062 62.857 35.342 62.888 34.774 62.9605 34.1854 62.9979 33.593 63 33L63 32 62.985 32C62.991 31.073 62.975 30.386 62.975 30.386 62.975 30.386 62.932 28.62 62.794 27.778 58.915 25.744 55.124 24.361 47.947 24.361 40.77 24.361 37.065 25.746 33.186 27.78 33.047 28.622 33.005 30.388 33.005 30.388L33.018 33.329C33.0207 34.3796 33.1273 35.4273 33.336 36.457L30.118 35.175C26.782 33.723 25.489 31.84 25.489 29.775 25.489 28.023 26.913 26.43 29.331 25.09 30.5262 24.3872 31.7587 23.75 33.023 23.181 37.1 21.16 41.054 20 47.944 20 54.908 20 58.881 21.16 62.959 23.185ZM35.906 52.693 36.636 52.393C37.5321 53.4284 38.696 54.1972 40 54.615L40 84.828C30.837 84.341 22.655 83.048 19 80.943L19 65.023C19.0405 62.9662 20.0082 61.0378 21.633 59.776 24.993 57.027 29.068 55.269 33.374 53.724ZM42 84.921 42 55.227C45.9469 56.1483 50.0531 56.1483 54 55.227L54 84.952C50.051 85.089 45.964 85.079 42 84.921ZM62.614 53.721C66.925 55.269 71 57.028 74.378 59.79 75.9916 61.0435 76.9547 62.9572 77 65L77 80.976C73.616 83.125 65.351 84.42 56 84.869L56 54.613C57.3019 54.1971 58.4645 53.4316 59.361 52.4Z" class="MsftOfcThm_Accent6_lumMod_75_Fill_v2" fill="#548235"/></g></svg>